PathFileType	4	(X/Y/Z)	C:/Users/opensim2020/Desktop/walking_exp_matlab/subject01_walking13_straight_04.trc	
DataRate	CameraRate	NumFrames	NumMarkers	Units	OrigDataRate	OrigDataStartFrame	OrigNumFrames	
100.00	100.00	6	42	mm	100.00	2193	135	
Frame#	Time	LFHD			RFHD			LBHD			RBHD			C7			T10			CLAV			STRN			RBAK			LSHO			LUPA			LELB			LFRM			LWRA			LWRB			LFIN			RSHO			RUPA			RELB			RFRM			RWRA			RWRB			RFIN			LASI			RASI			LPSI			RPSI			LTHI			LKNE			LTIB			LANK			LHEE			LTOE			RTHI			RKNE			RTIB			RANK			RHEE			RTOE			*39			*40			*41			
		X1	Y1	Z1	X2	Y2	Z2	X3	Y3	Z3	X4	Y4	Z4	X5	Y5	Z5	X6	Y6	Z6	X7	Y7	Z7	X8	Y8	Z8	X9	Y9	Z9	X10	Y10	Z10	X11	Y11	Z11	X12	Y12	Z12	X13	Y13	Z13	X14	Y14	Z14	X15	Y15	Z15	X16	Y16	Z16	X17	Y17	Z17	X18	Y18	Z18	X19	Y19	Z19	X20	Y20	Z20	X21	Y21	Z21	X22	Y22	Z22	X23	Y23	Z23	X24	Y24	Z24	X25	Y25	Z25	X26	Y26	Z26	X27	Y27	Z27	X28	Y28	Z28	X29	Y29	Z29	X30	Y30	Z30	X31	Y31	Z31	X32	Y32	Z32	X33	Y33	Z33	X34	Y34	Z34	X35	Y35	Z35	X36	Y36	Z36	X37	Y37	Z37	X38	Y38	Z38	X39	Y39	Z39	X40	Y40	Z40	X41	Y41	Z41	X42	Y42	Z42	

85	0.840	1491.37158	-129.33641	1669.41931	1377.94507	-138.66820	1667.38135	1490.56885	-10.04157	1634.07434	1369.82959	-16.43632	1630.93237	1452.32996	45.56443	1438.42383	1446.03503	86.58963	1143.35571	1454.58496	-96.90254	1367.76196	1465.48828	-139.29739	1215.04480	1374.60876	103.29207	1242.79077	1614.04041	-31.68054	1402.93347	1705.71606	25.24553	1232.93359	1719.57898	55.84153	1082.31433	1738.66418	-6.22185	980.43860	1713.85645	-111.12763	891.29852	1737.28015	-59.37675	870.88470	1749.72449	-122.94646	819.04285	1301.04456	-35.86423	1395.24390	1199.97632	34.63914	1201.99683	1195.69702	43.44456	1073.89124	1178.42004	-1.06209	956.91663	1215.33936	-96.14218	858.85889	1174.12036	-57.58124	847.65021	1175.65955	-112.71738	787.49152	1564.15381	-88.58685	938.57190	1346.63696	-98.72873	939.19232	1507.38245	93.64297	949.25635	1362.73853	86.59484	955.58203	1640.53979	-122.89015	617.50299	1635.02222	-137.50589	485.75012	1626.26245	-7.49515	357.71432	1567.89685	124.20071	185.15987	1504.26318	165.55133	180.97675	1592.39783	37.41413	69.83356	1300.61621	-35.71412	603.55627	1331.02966	-37.56157	445.44174	1326.12109	26.07552	279.66815	1380.60632	69.83736	79.50542	1427.16467	125.21597	46.99187	1393.70605	-68.34216	33.81489	1398.73108	-130.18915	1702.79956	-3101.81885	1973.17615	1023.56366	-3140.69946	2012.55017	1022.08807 
86	0.850	1491.76721	-143.11140	1669.14148	1378.23804	-152.07652	1667.20251	1491.27344	-23.73663	1634.06714	1370.44885	-29.74996	1631.00061	1452.70264	32.51657	1438.62170	1446.06848	74.14682	1143.63245	1455.10522	-110.33546	1368.02417	1465.64099	-151.87117	1214.84155	1374.54517	90.64245	1243.26672	1614.41260	-44.69654	1402.81128	1705.53943	14.25079	1233.18286	1718.35266	46.92704	1083.00281	1737.64380	-11.51897	979.05853	1713.09839	-113.43160	886.26801	1736.40662	-60.84371	867.70575	1748.92871	-122.43123	813.67975	1301.49536	-48.80782	1395.63306	1199.90027	21.42771	1202.59534	1195.15735	28.96710	1074.12988	1178.67822	-19.15433	958.23511	1216.77649	-116.99368	863.47491	1175.54102	-79.31676	851.06152	1177.21191	-136.42432	792.73657	1563.67407	-100.86926	938.78894	1346.18652	-110.08625	938.86572	1507.68018	81.44586	949.63263	1363.13086	74.97575	956.03015	1640.48962	-140.24394	619.77704	1634.18359	-157.71114	488.32050	1626.35620	-33.08500	353.66800	1568.16870	90.57821	175.13640	1504.42725	131.60860	167.74344	1595.40784	-2.76718	67.12110	1300.44434	-42.32146	603.82831	1330.41760	-41.18119	445.54596	1326.49133	24.33195	280.75977	1380.86096	69.48580	80.43160	1427.62268	124.24715	48.60579	1393.69092	-68.51876	33.78764	1399.10693	-143.69850	1702.58264	-3102.01416	1973.06836	1023.37933	-3140.81812	2012.49683	1021.99500 
87	0.860	1492.21948	-156.78647	1668.74915	1378.66577	-165.39647	1666.93323	1492.03772	-37.36726	1633.91992	1371.25232	-43.01768	1631.05957	1453.17505	19.44039	1438.75391	1446.18701	61.71810	1143.81006	1455.53455	-123.23603	1367.66626	1465.81458	-164.36693	1214.44666	1374.57043	78.00404	1243.63831	1614.96399	-57.67950	1402.58301	1705.38464	3.14775	1233.22998	1717.28870	37.89783	1083.48511	1736.77112	-16.98528	977.72125	1712.47180	-115.86757	881.47687	1735.52710	-62.54025	864.71411	1748.09229	-122.15540	808.42218	1302.20300	-61.69004	1395.62207	1199.84802	8.13017	1202.97559	1194.69409	14.62309	1074.27209	1178.98206	-36.99179	959.58392	1217.93213	-138.12889	868.46783	1176.76428	-100.71295	854.50806	1178.91785	-159.76871	798.09802	1563.52344	-113.25004	938.86469	1345.86072	-121.41414	938.37994	1508.02710	69.35038	949.80524	1363.48547	63.48661	956.24731	1640.43542	-157.26697	621.84985	1633.52856	-177.38838	490.50778	1626.76160	-58.75538	348.72321	1568.68701	56.24128	164.83685	1504.68701	96.41620	154.25523	1598.33228	-43.86969	63.72085	1300.32385	-49.16153	603.96124	1330.18787	-44.90140	445.95609	1326.86157	22.34060	281.79160	1380.97754	68.47563	81.41477	1427.65308	123.51707	50.34222	1393.80029	-68.69691	33.76362	1399.64441	-157.16533	1702.29333	-3102.03271	1973.16980	1023.51202	-3140.68481	2012.46021	1021.97552 
88	0.870	1492.79883	-170.44603	1668.31885	1379.19482	-178.72809	1666.63623	1492.96021	-50.94744	1633.69678	1372.15210	-56.20925	1630.95874	1453.77502	6.45187	1438.69666	1446.37402	49.29002	1143.87805	1456.20032	-136.57700	1367.64172	1465.96387	-176.92506	1213.92480	1374.72632	65.41781	1243.96033	1615.51978	-70.81061	1402.06677	1705.29724	-8.06187	1233.12207	1716.36255	28.60475	1083.86890	1735.95935	-22.65688	976.42535	1711.76685	-118.46027	876.75287	1734.80359	-64.40096	861.96393	1747.27283	-122.05489	803.43188	1302.49670	-74.88696	1396.08484	1200.00366	-5.10335	1203.24036	1194.23975	0.31894	1074.30322	1179.34351	-54.61740	960.85944	1219.27649	-158.41417	873.21161	1177.93079	-121.60216	857.86053	1180.64868	-182.72414	803.63190	1563.34937	-125.65174	938.62073	1345.54443	-132.76541	937.68762	1508.39368	57.20321	949.73291	1363.92261	51.90028	956.31549	1640.42920	-173.83101	623.65521	1632.79822	-196.36707	492.32681	1627.25232	-84.39349	343.54401	1569.40979	20.88547	154.10910	1505.28235	60.03832	140.14299	1601.82031	-84.91705	60.76696	1300.25452	-56.01728	604.03271	1329.99683	-48.95984	445.88629	1327.31409	19.83368	282.80063	1381.01318	67.68996	82.63177	1428.26343	123.51304	52.25458	1393.66138	-68.58665	33.50776	1400.30396	-170.55804	1702.00916	-3101.89575	1973.24255	1023.34949	-3140.75659	2012.42871	1022.03284 
89	0.880	1493.52478	-184.07765	1667.77673	1379.74878	-191.92073	1666.19080	1494.06140	-64.52612	1633.36914	1373.21460	-69.35875	1630.84253	1454.11401	-6.87346	1438.66040	1446.56104	36.79900	1143.82825	1456.57483	-148.51031	1366.52161	1466.16504	-189.47217	1213.26794	1374.97095	52.82765	1244.16833	1616.22827	-83.94836	1401.44580	1705.33655	-19.48469	1232.78259	1715.59448	19.14920	1084.10706	1735.30090	-28.60906	975.21729	1711.33313	-121.22703	872.34265	1734.26892	-66.55945	859.44995	1746.58447	-122.12020	798.76147	1303.35754	-87.71000	1395.87012	1200.22949	-18.30880	1203.35071	1193.90063	-13.97248	1074.26477	1179.71777	-72.15255	962.13617	1220.39832	-178.87793	878.28754	1179.33936	-142.57317	861.48810	1182.36218	-205.08444	809.12427	1563.26868	-138.09567	938.32819	1345.26233	-144.18449	936.88208	1508.86633	44.97710	949.47430	1364.44165	40.34838	956.15668	1640.43604	-190.10927	625.15643	1631.97644	-214.71532	493.70920	1627.80554	-110.12622	338.34741	1570.82544	-15.29970	143.51379	1506.44666	22.63671	126.04452	1605.39722	-126.74866	57.81007	1300.28418	-62.74019	603.97485	1329.96814	-53.13091	445.93130	1327.57788	17.18578	283.58643	1381.21472	67.10634	83.92574	1428.35437	122.87457	54.07355	1393.52026	-68.99679	33.67479	1401.07178	-183.89586	1701.62573	-3101.93213	1973.07361	1023.54266	-3140.80762	2012.53882	1022.13440 
90	0.890	1494.27808	-197.69620	1667.15613	1380.49121	-205.11920	1665.75293	1495.23743	-78.09389	1632.90393	1374.31067	-82.47855	1630.57141	1455.31091	-19.71985	1438.35950	1446.85010	24.22479	1143.66467	1457.24438	-161.44423	1365.89795	1466.41785	-202.10927	1212.54651	1375.33313	40.24046	1244.27441	1617.00696	-97.13765	1400.64160	1705.53235	-31.05647	1232.26697	1714.84814	9.44118	1084.13184	1734.73181	-34.85840	974.01935	1711.02686	-124.27222	868.19513	1733.70105	-69.08529	857.03809	1745.90808	-122.54319	794.35657	1304.15967	-100.64777	1395.86792	1200.53369	-31.57600	1203.27307	1193.61487	-28.19210	1074.22498	1180.16602	-89.47762	963.49390	1221.57312	-198.60918	883.27203	1180.39685	-162.72180	865.05255	1184.06543	-227.06458	814.58313	1563.19519	-150.68968	937.88495	1344.95642	-155.64363	935.95673	1509.44373	32.72530	948.98578	1365.06689	28.64023	955.84253	1640.49658	-206.01787	626.36035	1631.51367	-232.86449	494.86285	1628.71301	-135.74342	333.24902	1572.89331	-52.19154	133.00511	1508.42834	-15.55529	112.44292	1608.94885	-168.95833	55.61825	1300.52466	-69.69263	603.91888	1330.09021	-57.55113	446.21283	1327.82397	14.35043	284.43661	1381.32288	66.21079	85.18505	1428.70691	122.42589	55.90404	1393.57019	-69.14584	33.61849	1401.83801	-197.17551	1701.08313	-3102.10327	1973.14612	1023.38068	-3140.77637	2012.58459	1022.17340 
